<svg xmlns="http://www.w3.org/2000/svg" viewBox="0 0 320 96" preserveAspectRatio="none">
  <path fill="none" stroke="#1a1a1a" stroke-width="2" vector-effect="non-scaling-stroke" d="M 18,0 L 302,0 A 18,18 0 0,1 320,18 L 320,23.5 A 3.5,3.5 0 0,0 316.5,29 A 3.5,3.5 0 0,0 320,29 L 320,34.5 A 3.5,3.5 0 0,0 316.5,40 A 3.5,3.5 0 0,0 320,40 L 320,45.5 A 3.5,3.5 0 0,0 316.5,51 A 3.5,3.5 0 0,0 320,51 L 320,56.5 A 3.5,3.5 0 0,0 316.5,62 A 3.5,3.5 0 0,0 320,62 L 320,67.5 A 3.5,3.5 0 0,0 316.5,73 A 3.5,3.5 0 0,0 320,73 L 320,78 A 18,18 0 0,1 302,96 L 18,96 A 18,18 0 0,1 0,78 L 0,72.5 A 3.5,3.5 0 0,0 3.5,67 A 3.5,3.5 0 0,0 0,67 L 0,61.5 A 3.5,3.5 0 0,0 3.5,56 A 3.5,3.5 0 0,0 0,56 L 0,50.5 A 3.5,3.5 0 0,0 3.5,45 A 3.5,3.5 0 0,0 0,45 L 0,39.5 A 3.5,3.5 0 0,0 3.5,34 A 3.5,3.5 0 0,0 0,34 L 0,28.5 A 3.5,3.5 0 0,0 3.5,23 A 3.5,3.5 0 0,0 0,23 L 0,18 A 18,18 0 0,1 18,0 Z"/>
</svg>